<?xml version="1.0" encoding="UTF-8" standalone="no"?>
<!-- Created with Inkscape (http://www.inkscape.org/) -->

<svg
   xmlns:dc="http://purl.org/dc/elements/1.1/"
   xmlns:cc="http://creativecommons.org/ns#"
   xmlns:rdf="http://www.w3.org/1999/02/22-rdf-syntax-ns#"
   xmlns:svg="http://www.w3.org/2000/svg"
   xmlns="http://www.w3.org/2000/svg"
   xmlns:sodipodi="http://sodipodi.sourceforge.net/DTD/sodipodi-0.dtd"
   xmlns:inkscape="http://www.inkscape.org/namespaces/inkscape"
   width="37mm"
   height="37mm"
   viewBox="0 0 37 37"
   version="1.1"
   id="svg857"
   inkscape:version="0.91 r13725"
   sodipodi:docname="logo-square.svg">
  <defs
     id="defs851" />
  <sodipodi:namedview
     id="base"
     pagecolor="#ffffff"
     bordercolor="#666666"
     borderopacity="1.0"
     inkscape:pageopacity="0.0"
     inkscape:pageshadow="2"
     inkscape:zoom="3.2080466"
     inkscape:cx="73.943857"
     inkscape:cy="62.287639"
     inkscape:document-units="mm"
     inkscape:current-layer="layer1"
     showgrid="false"
     inkscape:window-width="928"
     inkscape:window-height="755"
     inkscape:window-x="904"
     inkscape:window-y="184"
     inkscape:window-maximized="0" />
  <metadata
     id="metadata854">
    <rdf:RDF>
      <cc:Work
         rdf:about="">
        <dc:format>image/svg+xml</dc:format>
        <dc:type
           rdf:resource="http://purl.org/dc/dcmitype/StillImage" />
        <dc:title></dc:title>
      </cc:Work>
    </rdf:RDF>
  </metadata>
  <g
     inkscape:label="Layer 1"
     inkscape:groupmode="layer"
     id="layer1"
     transform="translate(0,-260)">
    <path
       style="fill:#689919;fill-opacity:1;stroke:none;stroke-width:0.04493561px;stroke-linecap:butt;stroke-linejoin:miter;stroke-opacity:1"
       d="m 2.7748315,282.81347 c -0.34978,-0.0384 -0.88231,0.065 -0.98797,-0.16293 0.11748,-0.23305 0.37084,-0.40984 1.4816,-0.23163 0,0 0.44582,-0.19876 0.42915,-0.24766 -0.0283,0.0701 -0.35368,0.1221 -0.30248,-0.40038 l 0.41936,-0.0795 c -0.61523,-0.17699 -0.0591,-0.2192 -0.002,-0.31883 0,0 -0.19591,-0.10055 -0.17534,-0.13183 0.14408,-0.21908 1.06995,-0.353 0.99138,-0.15142 0.1472,0.20621 0.75698,0.0965 0.46128,-0.33882 -0.077,-0.11336 0.61512,-0.0563 0.615,-0.1777 1.07986,-0.92219 1.03933,-0.11706 1.02983,-0.1082 0.082,2.9e-4 -0.1637,0.20476 0.42477,-0.11028 l 0.60509,-0.0214 c 0.16182,0.0641 0.0116,0.33309 0.7525701,0.0172 0,0 0.29463,0.0298 0.34381,0.0466 0.0492,0.0168 0.14306,0.19936 0.32356,0.28843 0.18051,0.0891 1.1782194,0.072 1.1782194,0.072 0.60301,-0.28414 0.81314,-0.002 0.51374,0.18575 0.0547,0.0212 0.28511,0.24519 0.28511,0.24519 0.54519,-0.0455 0.68117,0.008 0.312,0.18501 l -0.49348,0.41816 c -0.22798,0.14085 0.0495,0.20331 0.25261,0.27732 0,0 0.0181,0.27325 -0.0363,0.28742 -0.0544,0.0141 -0.68541,0.24926 -0.67978,0.27736 0.30064,-0.0569 0.8108,0.0274 0.0234,0.25413 0,0 0.20846,0.19418 0.0343,0.2513 -0.17412,0.0571 -0.7617694,0.24547 -0.7617694,0.24547 l -0.21728,0.12749 c 0.7355094,0.10497 -0.45084,0.30239 -0.84216,0.46155 -0.2912501,0.18503 -0.6607501,1.29374 -0.8438201,0.20178 0,0 -0.26063,-0.0226 -0.47947,0.0538 -0.21172,0.0739 -0.41408,0.42175 -0.8436,0.23719 0.12587,-0.18394 -0.81757,-0.38659 -0.96178,-0.32943 -0.0399,0.0535 -0.95886,0.57563 -1.33961,0.26567 -0.0165,-0.0607 1.05521,-0.32702 -0.0842,-0.37436 -0.18655,-0.0912 -0.99637,-0.17344 -0.60799,-0.42737 0.0759,-0.067 0.28114,-0.36885 0.24285,-0.38845 -0.22862,0.30539 -1.22932,-0.10991 -1.06036,-0.39842"
       id="path862"
       inkscape:connector-curvature="0"
       sodipodi:nodetypes="cccccccscscccccccccccccscccccccsccccccc" />
    <text
       xml:space="preserve"
       style="font-style:normal;font-weight:normal;font-size:10.58333302px;line-height:1.25;font-family:sans-serif;letter-spacing:0px;word-spacing:0px;fill:#000000;fill-opacity:1;stroke:none;stroke-width:0.26458332"
       x="2.5724049"
       y="280.55762"
       id="text817-3"><tspan
         sodipodi:role="line"
         id="tspan815-6"
         x="2.5724049"
         y="280.55762"
         style="font-style:normal;font-variant:normal;font-weight:900;font-stretch:normal;font-family:Lato;-inkscape-font-specification:'Lato Heavy';stroke-width:0.26458332">IT<tspan
   style="font-size:8.46666622px;stroke-width:0.26458332"
   id="tspan821-7">OGO</tspan><tspan
   style="font-style:normal;font-variant:normal;font-weight:300;font-stretch:normal;font-size:4.58611107px;font-family:Lato;-inkscape-font-specification:'Lato Light';stroke-width:0.26458332"
   id="tspan825-5" /></tspan></text>
    <path
       style="fill:#d21034;fill-opacity:1;stroke:none;stroke-width:0.02812566px;stroke-linecap:butt;stroke-linejoin:miter;stroke-opacity:1"
       d="m 29.762667,271.74126 c -0.15936,-0.033 -0.40198,0.0559 -0.45012,-0.1401 0.0535,-0.20039 0.16895,-0.3524 0.67502,-0.19916 0,0 0.20312,-0.17092 0.19553,-0.21296 -0.0129,0.0602 -0.16115,0.10499 -0.13781,-0.34428 l 0.19106,-0.0683 c -0.28031,-0.1522 -0.0269,-0.18849 -10e-4,-0.27416 0,0 -0.0893,-0.0865 -0.0799,-0.11335 0.0656,-0.18838 0.48747,-0.30354 0.45167,-0.13021 0.0671,0.17732 0.34489,0.083 0.21017,-0.29134 -0.0351,-0.0975 0.28025,-0.0484 0.28019,-0.1528 0.49199,-0.79297 0.47353,-0.10065 0.4692,-0.093 0.0374,2.5e-4 -0.0746,0.17608 0.19352,-0.0948 l 0.27569,-0.0184 c 0.0737,0.0552 0.005,0.28641 0.34287,0.0147 0,0 0.13424,0.0256 0.15664,0.0401 0.0224,0.0144 0.0652,0.17143 0.14742,0.24802 0.0822,0.0766 0.5368,0.0619 0.5368,0.0619 0.27474,-0.24433 0.37048,-0.002 0.23407,0.15972 0.0249,0.0183 0.1299,0.21084 0.1299,0.21084 0.24839,-0.0391 0.31034,0.007 0.14214,0.15907 l -0.22483,0.35957 c -0.10386,0.12111 0.0226,0.17483 0.1151,0.23847 0,0 0.008,0.23496 -0.0166,0.24714 -0.0248,0.0122 -0.31228,0.21433 -0.30972,0.2385 0.13698,-0.0489 0.36941,0.0236 0.0107,0.21852 0,0 0.095,0.16697 0.0156,0.21608 -0.0793,0.0491 -0.34706,0.21107 -0.34706,0.21107 l -0.099,0.10963 c 0.3351,0.0903 -0.20541,0.26001 -0.3837,0.39688 -0.13269,0.15909 -0.30104,1.11244 -0.38445,0.1735 0,0 -0.11874,-0.0194 -0.21845,0.0462 -0.0965,0.0635 -0.18865,0.36266 -0.38435,0.20396 0.0574,-0.15816 -0.37249,-0.33241 -0.43819,-0.28327 -0.0182,0.046 -0.43686,0.49497 -0.61033,0.22844 -0.007,-0.0522 0.48076,-0.2812 -0.0384,-0.3219 -0.085,-0.0784 -0.45396,-0.14913 -0.27701,-0.36748 0.0346,-0.0577 0.12809,-0.31716 0.11065,-0.33402 -0.10416,0.26261 -0.56009,-0.0945 -0.48311,-0.34259"
       id="path862-2"
       inkscape:connector-curvature="0"
       sodipodi:nodetypes="cccccccscscccccccccccccscccccccsccccccc" />
    <path
       style="fill:#ffce00;fill-opacity:1;stroke:none;stroke-width:0.01851592px;stroke-linecap:butt;stroke-linejoin:miter;stroke-opacity:1"
       d="m 17.741022,284.37887 c -0.0992,-0.023 -0.25031,0.0389 -0.28028,-0.0975 0.0333,-0.13948 0.1052,-0.24528 0.42031,-0.13862 0,0 0.12648,-0.11896 0.12175,-0.14823 -0.008,0.0419 -0.10034,0.0731 -0.0858,-0.23962 l 0.11897,-0.0476 c -0.17454,-0.10593 -0.0168,-0.13119 -5.8e-4,-0.19083 0,0 -0.0556,-0.0602 -0.0497,-0.0789 0.0409,-0.13112 0.30354,-0.21128 0.28125,-0.0906 0.0418,0.12342 0.21474,0.0578 0.13086,-0.20278 -0.0218,-0.0678 0.1745,-0.0337 0.17447,-0.10636 0.30635,-0.55192 0.29485,-0.0701 0.29215,-0.0648 0.0233,1.7e-4 -0.0464,0.12255 0.12051,-0.066 l 0.17166,-0.0128 c 0.0459,0.0384 0.003,0.19935 0.21349,0.0103 0,0 0.0836,0.0178 0.0975,0.0279 0.0139,0.01 0.0406,0.11932 0.0918,0.17263 0.0512,0.0533 0.33425,0.0431 0.33425,0.0431 0.17107,-0.17006 0.23069,-0.001 0.14575,0.11117 0.0155,0.0127 0.0809,0.14675 0.0809,0.14675 0.15466,-0.0272 0.19324,0.005 0.0885,0.11072 l -0.14,0.25027 c -0.0647,0.0843 0.014,0.12169 0.0717,0.16598 0,0 0.005,0.16354 -0.0103,0.17202 -0.0154,0.008 -0.19444,0.14918 -0.19285,0.166 0.0853,-0.034 0.23002,0.0164 0.007,0.15209 0,0 0.0591,0.11622 0.01,0.15041 -0.0494,0.0342 -0.2161,0.14691 -0.2161,0.14691 l -0.0616,0.0763 c 0.20865,0.0628 -0.1279,0.18098 -0.23892,0.27624 -0.0826,0.11073 -0.18745,0.77429 -0.23938,0.12076 0,0 -0.0739,-0.0135 -0.13603,0.0322 -0.0601,0.0442 -0.11747,0.25242 -0.23932,0.14196 0.0357,-0.11008 -0.23194,-0.23137 -0.27285,-0.19716 -0.0113,0.032 -0.27202,0.34451 -0.38004,0.15899 -0.005,-0.0363 0.29936,-0.19571 -0.0239,-0.22405 -0.0529,-0.0546 -0.28266,-0.10379 -0.17248,-0.25577 0.0215,-0.0401 0.0798,-0.22076 0.0689,-0.23249 -0.0649,0.18278 -0.34875,-0.0658 -0.30082,-0.23845"
       id="path862-7"
       inkscape:connector-curvature="0"
       sodipodi:nodetypes="cccccccscscccccccccccccscccccccsccccccc" />
    <text
       xml:space="preserve"
       style="font-style:normal;font-weight:normal;font-size:10.58333302px;line-height:1.25;font-family:sans-serif;letter-spacing:0px;word-spacing:0px;fill:#000000;fill-opacity:1;stroke:none;stroke-width:0.26458332"
       x="21.251282"
       y="285.22745"
       id="text817-3-3"><tspan
         sodipodi:role="line"
         id="tspan815-6-6"
         x="21.251282"
         y="285.22745"
         style="font-style:normal;font-variant:normal;font-weight:900;font-stretch:normal;font-family:Lato;-inkscape-font-specification:'Lato Heavy';stroke-width:0.26458332"><tspan
           style="font-style:normal;font-variant:normal;font-weight:300;font-stretch:normal;font-size:4.58611107px;font-family:Lato;-inkscape-font-specification:'Lato Light';stroke-width:0.26458332"
           id="tspan825-5-5">CONF</tspan></tspan></text>
  </g>
</svg>
